<?xml version="1.0" encoding="utf-8"?>
<!-- Generator: Adobe Illustrator 16.0.3, SVG Export Plug-In . SVG Version: 6.00 Build 0)  -->
<!DOCTYPE svg PUBLIC "-//W3C//DTD SVG 1.1//EN" "http://www.w3.org/Graphics/SVG/1.1/DTD/svg11.dtd">
<svg version="1.1" id="Capa_1" xmlns="http://www.w3.org/2000/svg" xmlns:xlink="http://www.w3.org/1999/xlink" x="0px" y="0px"
	 width="145px" height="113px" viewBox="0 0 145 113" enable-background="new 0 0 145 113" xml:space="preserve">
<g>
	<path fill-rule="evenodd" clip-rule="evenodd" d="M72.269,112.225c-20.373,0-40.745,0.01-61.118-0.005
		c-7.451-0.005-10.17-2.693-10.18-10.162C0.934,71.687,0.915,41.315,0.925,10.943C0.927,3.784,4.072,0.76,11.241,0.762
		c41.12,0.008,82.239,0.01,123.358,0.014c5.975,0,9.488,3.675,9.479,9.573c-0.05,30.743-0.063,61.485-0.015,92.229
		c0.01,6.464-2.997,9.661-9.553,9.661c-20.747,0.001-41.494,0-62.242,0C72.269,112.234,72.269,112.229,72.269,112.225z
		 M44.373,53.441c-4.895,5.942-9.601,11.583-14.222,17.293c-2.638,3.258-2.475,6.288,0.277,8.562
		c2.537,2.095,5.681,1.675,8.186-1.284c5.563-6.573,11.085-13.179,16.553-19.831c2.925-3.559,2.85-5.648-0.146-9.291
		c-5.31-6.457-10.639-12.896-15.992-19.317c-2.921-3.504-5.91-4.075-8.652-1.746c-2.759,2.344-2.745,5.412,0.089,8.846
		C34.991,42.154,39.539,47.615,44.373,53.441z M78.276,93.251c0,0.024,0,0.05,0,0.074c5.873,0,11.747,0.089,17.617-0.033
		c3.625-0.075,5.671-2.068,5.714-5.125c0.047-3.308-2.019-5.434-5.76-5.46c-11.619-0.083-23.24-0.081-34.86-0.014
		c-3.743,0.021-5.927,2.137-5.922,5.329c0.005,3.214,2.104,5.15,5.969,5.208C66.781,93.314,72.529,93.251,78.276,93.251z"/>
	<path fill-rule="evenodd" clip-rule="evenodd" fill="#FFFFFF" d="M44.373,53.441c-4.834-5.827-9.382-11.288-13.906-16.768
		c-2.834-3.434-2.848-6.502-0.089-8.846c2.742-2.329,5.73-1.758,8.652,1.746c5.353,6.42,10.682,12.86,15.992,19.317
		c2.996,3.643,3.07,5.732,0.146,9.291c-5.468,6.651-10.991,13.258-16.553,19.831c-2.505,2.959-5.649,3.379-8.186,1.284
		c-2.752-2.273-2.915-5.304-0.277-8.562C34.772,65.025,39.478,59.384,44.373,53.441z"/>
	<path fill-rule="evenodd" clip-rule="evenodd" fill="#ED9216" d="M78.276,93.251c-5.748,0-11.496,0.063-17.242-0.022
		c-3.865-0.058-5.964-1.994-5.969-5.208c-0.005-3.192,2.179-5.307,5.922-5.329c11.62-0.067,23.241-0.068,34.86,0.014
		c3.741,0.027,5.807,2.152,5.76,5.46c-0.043,3.057-2.089,5.05-5.714,5.125c-5.87,0.122-11.744,0.033-17.617,0.033
		C78.276,93.301,78.276,93.275,78.276,93.251z"/>
</g>
</svg>
